<svg preserveAspectRatio="none" overflow="visible" style="display: block;" width="17.5" height="17.5" viewBox="0 0 17.5 17.5" fill="none" xmlns="http://www.w3.org/2000/svg">
<path id="icon" d="M15.25 0C16.4926 0 17.5 1.00736 17.5 2.25V15.25C17.5 16.4926 16.4926 17.5 15.25 17.5H2.25C1.00736 17.5 0 16.4926 0 15.25V2.25C0 1.00736 1.00736 0 2.25 0H15.25ZM2.25 1.5C1.83579 1.5 1.5 1.83579 1.5 2.25V15.25C1.5 15.6642 1.83579 16 2.25 16H15.25C15.6642 16 16 15.6642 16 15.25V2.25C16 1.83579 15.6642 1.5 15.25 1.5H2.25ZM13.75 10.2861C14.1642 10.2861 14.5 10.6219 14.5 11.0361C14.4998 11.4502 14.1641 11.7861 13.75 11.7861H3.75C3.33594 11.7861 3.00022 11.4501 3 11.0361C3 10.6219 3.33581 10.2862 3.75 10.2861H13.75ZM13.75 5.71387C14.1641 5.71387 14.4998 6.04985 14.5 6.46387C14.5 6.87808 14.1642 7.21387 13.75 7.21387H3.75C3.33581 7.21384 3 6.87807 3 6.46387C3.00023 6.04987 3.33595 5.71389 3.75 5.71387H13.75Z" fill="#999999"/>
</svg>
